# xmcd
#
# Track frame offsets: 
#        150
#        10194
#        20670
#        36137
#        45009
#        56923
#        63774
#        78378
#        89297
#        106474
#        116474
#        134938
#        143983
#
# Disc length: 2054 seconds
#
# Revision: 0
# Processed by: cddbd v1.5.2PL0 Copyright (c) Steve Scherf et al.
# Submitted via: ExactAudioCopy v0.95b4
#
DISCID=ac08040d
DTITLE=Mazieji svirpliukai - Linksmasis traukinukas
DYEAR=2001
DGENRE=Country
TTITLE0=Linksmasis traukinukas
TTITLE1=Kiskucio pyrageliai
TTITLE2=Zelmenelis
TTITLE3=Polka
TTITLE4=Mano suo
TTITLE5=Dainele
TTITLE6=Senelio pasaka
TTITLE7=Svajokliai vaikai
TTITLE8=Pleksne
TTITLE9=Traukinukas
TTITLE10=Atvirai
TTITLE11=Boruziuku dainele
TTITLE12=Misko muzikantai
EXTD=
EXTT0=
EXTT1=
EXTT2=
EXTT3=
EXTT4=
EXTT5=
EXTT6=
EXTT7=
EXTT8=
EXTT9=
EXTT10=
EXTT11=
EXTT12=
PLAYORDER=
